<mxfile host="app.diagrams.net" modified="2024-03-20T08:08:35.127Z" agent="Mozilla/5.0 (Windows NT 10.0; Win64; x64) AppleWebKit/537.36 (KHTML, like Gecko) Chrome/109.0.0.0 Safari/537.36" etag="PRGQjgx3GjDfBvOb0yEJ" version="24.0.7" type="github">
  <diagram id="R2lEEEUBdFMjLlhIrx00" name="Page-1">
    <mxGraphModel dx="5220" dy="2908" grid="1" gridSize="10" guides="1" tooltips="1" connect="1" arrows="1" fold="1" page="1" pageScale="1" pageWidth="850" pageHeight="1100" math="0" shadow="0" extFonts="Permanent Marker^https://fonts.googleapis.com/css?family=Permanent+Marker">
      <root>
        <mxCell id="0" />
        <mxCell id="1" parent="0" />
        <mxCell id="M6uvEseLIlFZfIpXj4Gl-4" value="&amp;nbsp; id&amp;nbsp;&amp;nbsp;" style="ellipse;whiteSpace=wrap;html=1;align=center;fontStyle=4;" vertex="1" parent="1">
          <mxGeometry x="-440" y="350" width="100" height="40" as="geometry" />
        </mxCell>
        <mxCell id="M6uvEseLIlFZfIpXj4Gl-40" style="edgeStyle=orthogonalEdgeStyle;rounded=0;orthogonalLoop=1;jettySize=auto;html=1;entryX=1;entryY=0.5;entryDx=0;entryDy=0;" edge="1" parent="1" source="M6uvEseLIlFZfIpXj4Gl-5" target="M6uvEseLIlFZfIpXj4Gl-7">
          <mxGeometry relative="1" as="geometry">
            <Array as="points">
              <mxPoint x="-270" y="370" />
            </Array>
          </mxGeometry>
        </mxCell>
        <mxCell id="M6uvEseLIlFZfIpXj4Gl-41" style="edgeStyle=orthogonalEdgeStyle;rounded=0;orthogonalLoop=1;jettySize=auto;html=1;entryX=0.5;entryY=1;entryDx=0;entryDy=0;" edge="1" parent="1" source="M6uvEseLIlFZfIpXj4Gl-5" target="M6uvEseLIlFZfIpXj4Gl-8">
          <mxGeometry relative="1" as="geometry" />
        </mxCell>
        <mxCell id="M6uvEseLIlFZfIpXj4Gl-44" style="edgeStyle=orthogonalEdgeStyle;rounded=0;orthogonalLoop=1;jettySize=auto;html=1;exitX=1;exitY=0.25;exitDx=0;exitDy=0;" edge="1" parent="1" source="M6uvEseLIlFZfIpXj4Gl-5">
          <mxGeometry relative="1" as="geometry">
            <mxPoint x="-140" y="435" as="targetPoint" />
            <Array as="points">
              <mxPoint x="-160" y="490" />
              <mxPoint x="-160" y="435" />
            </Array>
          </mxGeometry>
        </mxCell>
        <mxCell id="M6uvEseLIlFZfIpXj4Gl-45" style="edgeStyle=orthogonalEdgeStyle;rounded=0;orthogonalLoop=1;jettySize=auto;html=1;exitX=1;exitY=0;exitDx=0;exitDy=0;entryX=0;entryY=0.5;entryDx=0;entryDy=0;" edge="1" parent="1" source="M6uvEseLIlFZfIpXj4Gl-5" target="M6uvEseLIlFZfIpXj4Gl-10">
          <mxGeometry relative="1" as="geometry">
            <Array as="points">
              <mxPoint x="-180" y="480" />
              <mxPoint x="-180" y="380" />
            </Array>
          </mxGeometry>
        </mxCell>
        <mxCell id="M6uvEseLIlFZfIpXj4Gl-142" style="edgeStyle=orthogonalEdgeStyle;rounded=0;orthogonalLoop=1;jettySize=auto;html=1;exitX=0.75;exitY=1;exitDx=0;exitDy=0;entryX=0;entryY=0.5;entryDx=0;entryDy=0;" edge="1" parent="1" source="M6uvEseLIlFZfIpXj4Gl-5" target="M6uvEseLIlFZfIpXj4Gl-139">
          <mxGeometry relative="1" as="geometry" />
        </mxCell>
        <mxCell id="M6uvEseLIlFZfIpXj4Gl-5" value="User" style="rounded=1;arcSize=10;whiteSpace=wrap;html=1;align=center;" vertex="1" parent="1">
          <mxGeometry x="-270" y="490" width="70" height="30" as="geometry" />
        </mxCell>
        <mxCell id="M6uvEseLIlFZfIpXj4Gl-7" value="email" style="ellipse;whiteSpace=wrap;html=1;align=center;" vertex="1" parent="1">
          <mxGeometry x="-410" y="300" width="100" height="40" as="geometry" />
        </mxCell>
        <mxCell id="M6uvEseLIlFZfIpXj4Gl-8" value="emailVerified" style="ellipse;whiteSpace=wrap;html=1;align=center;" vertex="1" parent="1">
          <mxGeometry x="-300" y="320" width="100" height="40" as="geometry" />
        </mxCell>
        <mxCell id="M6uvEseLIlFZfIpXj4Gl-9" value="password" style="ellipse;whiteSpace=wrap;html=1;align=center;" vertex="1" parent="1">
          <mxGeometry x="-190" y="320" width="100" height="40" as="geometry" />
        </mxCell>
        <mxCell id="M6uvEseLIlFZfIpXj4Gl-10" value="role" style="ellipse;whiteSpace=wrap;html=1;align=center;" vertex="1" parent="1">
          <mxGeometry x="-140" y="360" width="100" height="40" as="geometry" />
        </mxCell>
        <mxCell id="M6uvEseLIlFZfIpXj4Gl-11" value="image" style="ellipse;whiteSpace=wrap;html=1;align=center;" vertex="1" parent="1">
          <mxGeometry x="-425" y="400" width="100" height="40" as="geometry" />
        </mxCell>
        <mxCell id="M6uvEseLIlFZfIpXj4Gl-12" value="isTowFactorEnabled" style="ellipse;whiteSpace=wrap;html=1;align=center;" vertex="1" parent="1">
          <mxGeometry x="-140" y="410" width="120" height="50" as="geometry" />
        </mxCell>
        <mxCell id="M6uvEseLIlFZfIpXj4Gl-34" value="twoFactorConfirmation" style="ellipse;whiteSpace=wrap;html=1;align=center;" vertex="1" parent="1">
          <mxGeometry x="-140" y="470" width="130" height="50" as="geometry" />
        </mxCell>
        <mxCell id="M6uvEseLIlFZfIpXj4Gl-38" style="edgeStyle=orthogonalEdgeStyle;rounded=0;orthogonalLoop=1;jettySize=auto;html=1;entryX=0.943;entryY=0.669;entryDx=0;entryDy=0;entryPerimeter=0;" edge="1" parent="1" source="M6uvEseLIlFZfIpXj4Gl-5" target="M6uvEseLIlFZfIpXj4Gl-11">
          <mxGeometry relative="1" as="geometry">
            <Array as="points">
              <mxPoint x="-235" y="480" />
              <mxPoint x="-331" y="480" />
            </Array>
          </mxGeometry>
        </mxCell>
        <mxCell id="M6uvEseLIlFZfIpXj4Gl-39" style="edgeStyle=orthogonalEdgeStyle;rounded=0;orthogonalLoop=1;jettySize=auto;html=1;entryX=0.993;entryY=0.551;entryDx=0;entryDy=0;entryPerimeter=0;" edge="1" parent="1" source="M6uvEseLIlFZfIpXj4Gl-5" target="M6uvEseLIlFZfIpXj4Gl-4">
          <mxGeometry relative="1" as="geometry">
            <Array as="points">
              <mxPoint x="-290" y="422" />
            </Array>
          </mxGeometry>
        </mxCell>
        <mxCell id="M6uvEseLIlFZfIpXj4Gl-42" style="edgeStyle=orthogonalEdgeStyle;rounded=0;orthogonalLoop=1;jettySize=auto;html=1;entryX=0.2;entryY=1;entryDx=0;entryDy=0;entryPerimeter=0;" edge="1" parent="1" source="M6uvEseLIlFZfIpXj4Gl-5" target="M6uvEseLIlFZfIpXj4Gl-9">
          <mxGeometry relative="1" as="geometry">
            <Array as="points">
              <mxPoint x="-230" y="450" />
              <mxPoint x="-190" y="450" />
              <mxPoint x="-190" y="360" />
            </Array>
          </mxGeometry>
        </mxCell>
        <mxCell id="M6uvEseLIlFZfIpXj4Gl-43" style="edgeStyle=orthogonalEdgeStyle;rounded=0;orthogonalLoop=1;jettySize=auto;html=1;entryX=-0.01;entryY=0.589;entryDx=0;entryDy=0;entryPerimeter=0;" edge="1" parent="1" source="M6uvEseLIlFZfIpXj4Gl-5" target="M6uvEseLIlFZfIpXj4Gl-34">
          <mxGeometry relative="1" as="geometry" />
        </mxCell>
        <mxCell id="M6uvEseLIlFZfIpXj4Gl-61" style="edgeStyle=orthogonalEdgeStyle;rounded=0;orthogonalLoop=1;jettySize=auto;html=1;" edge="1" parent="1" source="M6uvEseLIlFZfIpXj4Gl-46" target="M6uvEseLIlFZfIpXj4Gl-47">
          <mxGeometry relative="1" as="geometry" />
        </mxCell>
        <mxCell id="M6uvEseLIlFZfIpXj4Gl-62" style="edgeStyle=orthogonalEdgeStyle;rounded=0;orthogonalLoop=1;jettySize=auto;html=1;exitX=0.25;exitY=0;exitDx=0;exitDy=0;entryX=1;entryY=0.5;entryDx=0;entryDy=0;" edge="1" parent="1" source="M6uvEseLIlFZfIpXj4Gl-46" target="M6uvEseLIlFZfIpXj4Gl-49">
          <mxGeometry relative="1" as="geometry" />
        </mxCell>
        <mxCell id="M6uvEseLIlFZfIpXj4Gl-63" style="edgeStyle=orthogonalEdgeStyle;rounded=0;orthogonalLoop=1;jettySize=auto;html=1;exitX=0.5;exitY=0;exitDx=0;exitDy=0;entryX=1;entryY=0.5;entryDx=0;entryDy=0;" edge="1" parent="1" source="M6uvEseLIlFZfIpXj4Gl-46" target="M6uvEseLIlFZfIpXj4Gl-50">
          <mxGeometry relative="1" as="geometry" />
        </mxCell>
        <mxCell id="M6uvEseLIlFZfIpXj4Gl-71" style="edgeStyle=orthogonalEdgeStyle;rounded=0;orthogonalLoop=1;jettySize=auto;html=1;exitX=0.25;exitY=1;exitDx=0;exitDy=0;entryX=1;entryY=0;entryDx=0;entryDy=0;" edge="1" parent="1" source="M6uvEseLIlFZfIpXj4Gl-46" target="M6uvEseLIlFZfIpXj4Gl-59">
          <mxGeometry relative="1" as="geometry" />
        </mxCell>
        <mxCell id="M6uvEseLIlFZfIpXj4Gl-46" value="Account" style="rounded=1;arcSize=10;whiteSpace=wrap;html=1;align=center;" vertex="1" parent="1">
          <mxGeometry x="-780" y="690" width="100" height="40" as="geometry" />
        </mxCell>
        <mxCell id="M6uvEseLIlFZfIpXj4Gl-47" value="&amp;nbsp; id&amp;nbsp;&amp;nbsp;" style="ellipse;whiteSpace=wrap;html=1;align=center;fontStyle=4;" vertex="1" parent="1">
          <mxGeometry x="-950" y="650" width="100" height="40" as="geometry" />
        </mxCell>
        <mxCell id="M6uvEseLIlFZfIpXj4Gl-49" value="&lt;span style=&quot;border-bottom: 1px dotted&quot;&gt;userId&lt;/span&gt;" style="ellipse;whiteSpace=wrap;html=1;align=center;" vertex="1" parent="1">
          <mxGeometry x="-930" y="600" width="100" height="40" as="geometry" />
        </mxCell>
        <mxCell id="M6uvEseLIlFZfIpXj4Gl-50" value="provider" style="ellipse;whiteSpace=wrap;html=1;align=center;" vertex="1" parent="1">
          <mxGeometry x="-900" y="540" width="100" height="40" as="geometry" />
        </mxCell>
        <mxCell id="M6uvEseLIlFZfIpXj4Gl-51" value="type" style="ellipse;whiteSpace=wrap;html=1;align=center;" vertex="1" parent="1">
          <mxGeometry x="-840" y="500" width="100" height="40" as="geometry" />
        </mxCell>
        <mxCell id="M6uvEseLIlFZfIpXj4Gl-52" value="expire_at" style="ellipse;whiteSpace=wrap;html=1;align=center;" vertex="1" parent="1">
          <mxGeometry x="-640" y="650" width="100" height="40" as="geometry" />
        </mxCell>
        <mxCell id="M6uvEseLIlFZfIpXj4Gl-53" value="token_type" style="ellipse;whiteSpace=wrap;html=1;align=center;" vertex="1" parent="1">
          <mxGeometry x="-610" y="750" width="100" height="40" as="geometry" />
        </mxCell>
        <mxCell id="M6uvEseLIlFZfIpXj4Gl-54" value="access_token" style="ellipse;whiteSpace=wrap;html=1;align=center;" vertex="1" parent="1">
          <mxGeometry x="-665" y="550" width="100" height="40" as="geometry" />
        </mxCell>
        <mxCell id="M6uvEseLIlFZfIpXj4Gl-55" value="providerAccountId" style="ellipse;whiteSpace=wrap;html=1;align=center;" vertex="1" parent="1">
          <mxGeometry x="-750" y="520" width="100" height="40" as="geometry" />
        </mxCell>
        <mxCell id="M6uvEseLIlFZfIpXj4Gl-56" value="scope" style="ellipse;whiteSpace=wrap;html=1;align=center;" vertex="1" parent="1">
          <mxGeometry x="-710" y="780" width="100" height="40" as="geometry" />
        </mxCell>
        <mxCell id="M6uvEseLIlFZfIpXj4Gl-57" value="refresh_token" style="ellipse;whiteSpace=wrap;html=1;align=center;" vertex="1" parent="1">
          <mxGeometry x="-650" y="600" width="100" height="40" as="geometry" />
        </mxCell>
        <mxCell id="M6uvEseLIlFZfIpXj4Gl-58" value="id_token" style="ellipse;whiteSpace=wrap;html=1;align=center;" vertex="1" parent="1">
          <mxGeometry x="-950" y="760" width="100" height="40" as="geometry" />
        </mxCell>
        <mxCell id="M6uvEseLIlFZfIpXj4Gl-59" value="session_state" style="ellipse;whiteSpace=wrap;html=1;align=center;" vertex="1" parent="1">
          <mxGeometry x="-840" y="780" width="100" height="40" as="geometry" />
        </mxCell>
        <mxCell id="M6uvEseLIlFZfIpXj4Gl-64" style="edgeStyle=orthogonalEdgeStyle;rounded=0;orthogonalLoop=1;jettySize=auto;html=1;exitX=0.75;exitY=0;exitDx=0;exitDy=0;entryX=0.73;entryY=1.036;entryDx=0;entryDy=0;entryPerimeter=0;" edge="1" parent="1" source="M6uvEseLIlFZfIpXj4Gl-46" target="M6uvEseLIlFZfIpXj4Gl-51">
          <mxGeometry relative="1" as="geometry" />
        </mxCell>
        <mxCell id="M6uvEseLIlFZfIpXj4Gl-65" style="edgeStyle=orthogonalEdgeStyle;rounded=0;orthogonalLoop=1;jettySize=auto;html=1;exitX=1;exitY=0;exitDx=0;exitDy=0;entryX=0.544;entryY=1.079;entryDx=0;entryDy=0;entryPerimeter=0;" edge="1" parent="1" source="M6uvEseLIlFZfIpXj4Gl-46" target="M6uvEseLIlFZfIpXj4Gl-55">
          <mxGeometry relative="1" as="geometry" />
        </mxCell>
        <mxCell id="M6uvEseLIlFZfIpXj4Gl-66" style="edgeStyle=orthogonalEdgeStyle;rounded=0;orthogonalLoop=1;jettySize=auto;html=1;exitX=1;exitY=0;exitDx=0;exitDy=0;entryX=0.037;entryY=0.771;entryDx=0;entryDy=0;entryPerimeter=0;" edge="1" parent="1" source="M6uvEseLIlFZfIpXj4Gl-46" target="M6uvEseLIlFZfIpXj4Gl-54">
          <mxGeometry relative="1" as="geometry">
            <Array as="points">
              <mxPoint x="-670" y="690" />
              <mxPoint x="-670" y="640" />
              <mxPoint x="-661" y="640" />
            </Array>
          </mxGeometry>
        </mxCell>
        <mxCell id="M6uvEseLIlFZfIpXj4Gl-67" style="edgeStyle=orthogonalEdgeStyle;rounded=0;orthogonalLoop=1;jettySize=auto;html=1;exitX=1;exitY=0.25;exitDx=0;exitDy=0;entryX=0.07;entryY=0.893;entryDx=0;entryDy=0;entryPerimeter=0;" edge="1" parent="1" source="M6uvEseLIlFZfIpXj4Gl-46" target="M6uvEseLIlFZfIpXj4Gl-57">
          <mxGeometry relative="1" as="geometry">
            <Array as="points">
              <mxPoint x="-650" y="700" />
              <mxPoint x="-650" y="636" />
            </Array>
          </mxGeometry>
        </mxCell>
        <mxCell id="M6uvEseLIlFZfIpXj4Gl-68" style="edgeStyle=orthogonalEdgeStyle;rounded=0;orthogonalLoop=1;jettySize=auto;html=1;exitX=1;exitY=0.75;exitDx=0;exitDy=0;entryX=0.261;entryY=1;entryDx=0;entryDy=0;entryPerimeter=0;" edge="1" parent="1" source="M6uvEseLIlFZfIpXj4Gl-46" target="M6uvEseLIlFZfIpXj4Gl-52">
          <mxGeometry relative="1" as="geometry">
            <Array as="points">
              <mxPoint x="-680" y="690" />
            </Array>
          </mxGeometry>
        </mxCell>
        <mxCell id="M6uvEseLIlFZfIpXj4Gl-69" style="edgeStyle=orthogonalEdgeStyle;rounded=0;orthogonalLoop=1;jettySize=auto;html=1;exitX=1;exitY=1;exitDx=0;exitDy=0;entryX=0.019;entryY=0.414;entryDx=0;entryDy=0;entryPerimeter=0;" edge="1" parent="1" source="M6uvEseLIlFZfIpXj4Gl-46" target="M6uvEseLIlFZfIpXj4Gl-53">
          <mxGeometry relative="1" as="geometry">
            <Array as="points">
              <mxPoint x="-680" y="750" />
              <mxPoint x="-608" y="750" />
            </Array>
          </mxGeometry>
        </mxCell>
        <mxCell id="M6uvEseLIlFZfIpXj4Gl-70" style="edgeStyle=orthogonalEdgeStyle;rounded=0;orthogonalLoop=1;jettySize=auto;html=1;exitX=0.75;exitY=1;exitDx=0;exitDy=0;entryX=0.219;entryY=0.093;entryDx=0;entryDy=0;entryPerimeter=0;" edge="1" parent="1" source="M6uvEseLIlFZfIpXj4Gl-46" target="M6uvEseLIlFZfIpXj4Gl-56">
          <mxGeometry relative="1" as="geometry">
            <Array as="points">
              <mxPoint x="-690" y="730" />
              <mxPoint x="-690" y="755" />
              <mxPoint x="-688" y="755" />
            </Array>
          </mxGeometry>
        </mxCell>
        <mxCell id="M6uvEseLIlFZfIpXj4Gl-72" style="edgeStyle=orthogonalEdgeStyle;rounded=0;orthogonalLoop=1;jettySize=auto;html=1;exitX=0;exitY=1;exitDx=0;exitDy=0;entryX=1;entryY=0.25;entryDx=0;entryDy=0;entryPerimeter=0;" edge="1" parent="1" source="M6uvEseLIlFZfIpXj4Gl-46" target="M6uvEseLIlFZfIpXj4Gl-58">
          <mxGeometry relative="1" as="geometry" />
        </mxCell>
        <mxCell id="M6uvEseLIlFZfIpXj4Gl-80" style="edgeStyle=orthogonalEdgeStyle;rounded=0;orthogonalLoop=1;jettySize=auto;html=1;exitX=0;exitY=0.5;exitDx=0;exitDy=0;entryX=1;entryY=0.5;entryDx=0;entryDy=0;" edge="1" parent="1" source="M6uvEseLIlFZfIpXj4Gl-74" target="M6uvEseLIlFZfIpXj4Gl-78">
          <mxGeometry relative="1" as="geometry" />
        </mxCell>
        <mxCell id="M6uvEseLIlFZfIpXj4Gl-81" style="edgeStyle=orthogonalEdgeStyle;rounded=0;orthogonalLoop=1;jettySize=auto;html=1;exitX=0.25;exitY=0;exitDx=0;exitDy=0;entryX=1;entryY=1;entryDx=0;entryDy=0;" edge="1" parent="1" source="M6uvEseLIlFZfIpXj4Gl-74" target="M6uvEseLIlFZfIpXj4Gl-75">
          <mxGeometry relative="1" as="geometry" />
        </mxCell>
        <mxCell id="M6uvEseLIlFZfIpXj4Gl-83" style="edgeStyle=orthogonalEdgeStyle;rounded=0;orthogonalLoop=1;jettySize=auto;html=1;exitX=0.75;exitY=0;exitDx=0;exitDy=0;entryX=0;entryY=0.5;entryDx=0;entryDy=0;" edge="1" parent="1" source="M6uvEseLIlFZfIpXj4Gl-74" target="M6uvEseLIlFZfIpXj4Gl-79">
          <mxGeometry relative="1" as="geometry" />
        </mxCell>
        <mxCell id="M6uvEseLIlFZfIpXj4Gl-74" value="session" style="rounded=1;arcSize=10;whiteSpace=wrap;html=1;align=center;" vertex="1" parent="1">
          <mxGeometry x="-700" y="260" width="100" height="40" as="geometry" />
        </mxCell>
        <mxCell id="M6uvEseLIlFZfIpXj4Gl-75" value="sessionToken" style="ellipse;whiteSpace=wrap;html=1;align=center;" vertex="1" parent="1">
          <mxGeometry x="-790" y="180" width="100" height="40" as="geometry" />
        </mxCell>
        <mxCell id="M6uvEseLIlFZfIpXj4Gl-76" value="expires" style="ellipse;whiteSpace=wrap;html=1;align=center;" vertex="1" parent="1">
          <mxGeometry x="-680" y="160" width="100" height="40" as="geometry" />
        </mxCell>
        <mxCell id="M6uvEseLIlFZfIpXj4Gl-78" value="&amp;nbsp; id&amp;nbsp;&amp;nbsp;" style="ellipse;whiteSpace=wrap;html=1;align=center;fontStyle=4;" vertex="1" parent="1">
          <mxGeometry x="-850" y="220" width="100" height="40" as="geometry" />
        </mxCell>
        <mxCell id="M6uvEseLIlFZfIpXj4Gl-79" value="&lt;span style=&quot;border-bottom: 1px dotted&quot;&gt;userId&lt;/span&gt;" style="ellipse;whiteSpace=wrap;html=1;align=center;" vertex="1" parent="1">
          <mxGeometry x="-590" y="200" width="100" height="40" as="geometry" />
        </mxCell>
        <mxCell id="M6uvEseLIlFZfIpXj4Gl-82" style="edgeStyle=orthogonalEdgeStyle;rounded=0;orthogonalLoop=1;jettySize=auto;html=1;entryX=0.3;entryY=1;entryDx=0;entryDy=0;entryPerimeter=0;" edge="1" parent="1" source="M6uvEseLIlFZfIpXj4Gl-74" target="M6uvEseLIlFZfIpXj4Gl-76">
          <mxGeometry relative="1" as="geometry" />
        </mxCell>
        <mxCell id="M6uvEseLIlFZfIpXj4Gl-99" style="edgeStyle=orthogonalEdgeStyle;rounded=0;orthogonalLoop=1;jettySize=auto;html=1;exitX=1;exitY=0.25;exitDx=0;exitDy=0;entryX=0;entryY=0.5;entryDx=0;entryDy=0;" edge="1" parent="1" source="M6uvEseLIlFZfIpXj4Gl-90" target="M6uvEseLIlFZfIpXj4Gl-95">
          <mxGeometry relative="1" as="geometry" />
        </mxCell>
        <mxCell id="M6uvEseLIlFZfIpXj4Gl-90" value="verificationToken" style="rounded=1;arcSize=10;whiteSpace=wrap;html=1;align=center;" vertex="1" parent="1">
          <mxGeometry x="-1490" y="280" width="100" height="40" as="geometry" />
        </mxCell>
        <mxCell id="M6uvEseLIlFZfIpXj4Gl-91" value="email" style="ellipse;whiteSpace=wrap;html=1;align=center;" vertex="1" parent="1">
          <mxGeometry x="-1605" y="250" width="100" height="40" as="geometry" />
        </mxCell>
        <mxCell id="M6uvEseLIlFZfIpXj4Gl-92" value="token" style="ellipse;whiteSpace=wrap;html=1;align=center;" vertex="1" parent="1">
          <mxGeometry x="-1525" y="200" width="100" height="40" as="geometry" />
        </mxCell>
        <mxCell id="M6uvEseLIlFZfIpXj4Gl-94" value="expires" style="ellipse;whiteSpace=wrap;html=1;align=center;" vertex="1" parent="1">
          <mxGeometry x="-1415" y="215" width="100" height="40" as="geometry" />
        </mxCell>
        <mxCell id="M6uvEseLIlFZfIpXj4Gl-95" value="&amp;nbsp; &amp;nbsp;id&amp;nbsp; &amp;nbsp;" style="ellipse;whiteSpace=wrap;html=1;align=center;fontStyle=4;" vertex="1" parent="1">
          <mxGeometry x="-1375" y="270" width="100" height="40" as="geometry" />
        </mxCell>
        <mxCell id="M6uvEseLIlFZfIpXj4Gl-96" style="edgeStyle=orthogonalEdgeStyle;rounded=0;orthogonalLoop=1;jettySize=auto;html=1;exitX=0;exitY=0.25;exitDx=0;exitDy=0;entryX=0.72;entryY=0.94;entryDx=0;entryDy=0;entryPerimeter=0;" edge="1" parent="1" source="M6uvEseLIlFZfIpXj4Gl-90" target="M6uvEseLIlFZfIpXj4Gl-91">
          <mxGeometry relative="1" as="geometry" />
        </mxCell>
        <mxCell id="M6uvEseLIlFZfIpXj4Gl-97" style="edgeStyle=orthogonalEdgeStyle;rounded=0;orthogonalLoop=1;jettySize=auto;html=1;exitX=0.25;exitY=0;exitDx=0;exitDy=0;entryX=0.615;entryY=1.048;entryDx=0;entryDy=0;entryPerimeter=0;" edge="1" parent="1" source="M6uvEseLIlFZfIpXj4Gl-90" target="M6uvEseLIlFZfIpXj4Gl-92">
          <mxGeometry relative="1" as="geometry" />
        </mxCell>
        <mxCell id="M6uvEseLIlFZfIpXj4Gl-98" style="edgeStyle=orthogonalEdgeStyle;rounded=0;orthogonalLoop=1;jettySize=auto;html=1;exitX=0.75;exitY=0;exitDx=0;exitDy=0;entryX=0.049;entryY=0.839;entryDx=0;entryDy=0;entryPerimeter=0;" edge="1" parent="1" source="M6uvEseLIlFZfIpXj4Gl-90" target="M6uvEseLIlFZfIpXj4Gl-94">
          <mxGeometry relative="1" as="geometry" />
        </mxCell>
        <mxCell id="M6uvEseLIlFZfIpXj4Gl-100" style="edgeStyle=orthogonalEdgeStyle;rounded=0;orthogonalLoop=1;jettySize=auto;html=1;exitX=1;exitY=0.25;exitDx=0;exitDy=0;entryX=0;entryY=0.5;entryDx=0;entryDy=0;" edge="1" parent="1" source="M6uvEseLIlFZfIpXj4Gl-101" target="M6uvEseLIlFZfIpXj4Gl-105">
          <mxGeometry relative="1" as="geometry" />
        </mxCell>
        <mxCell id="M6uvEseLIlFZfIpXj4Gl-101" value="passwordToken" style="rounded=1;arcSize=10;whiteSpace=wrap;html=1;align=center;" vertex="1" parent="1">
          <mxGeometry x="-1500" y="470" width="100" height="40" as="geometry" />
        </mxCell>
        <mxCell id="M6uvEseLIlFZfIpXj4Gl-102" value="email" style="ellipse;whiteSpace=wrap;html=1;align=center;" vertex="1" parent="1">
          <mxGeometry x="-1615" y="440" width="100" height="40" as="geometry" />
        </mxCell>
        <mxCell id="M6uvEseLIlFZfIpXj4Gl-103" value="token" style="ellipse;whiteSpace=wrap;html=1;align=center;" vertex="1" parent="1">
          <mxGeometry x="-1535" y="390" width="100" height="40" as="geometry" />
        </mxCell>
        <mxCell id="M6uvEseLIlFZfIpXj4Gl-104" value="expires" style="ellipse;whiteSpace=wrap;html=1;align=center;" vertex="1" parent="1">
          <mxGeometry x="-1425" y="405" width="100" height="40" as="geometry" />
        </mxCell>
        <mxCell id="M6uvEseLIlFZfIpXj4Gl-105" value="&amp;nbsp; &amp;nbsp;id&amp;nbsp; &amp;nbsp;" style="ellipse;whiteSpace=wrap;html=1;align=center;fontStyle=4;" vertex="1" parent="1">
          <mxGeometry x="-1385" y="460" width="100" height="40" as="geometry" />
        </mxCell>
        <mxCell id="M6uvEseLIlFZfIpXj4Gl-106" style="edgeStyle=orthogonalEdgeStyle;rounded=0;orthogonalLoop=1;jettySize=auto;html=1;exitX=0;exitY=0.25;exitDx=0;exitDy=0;entryX=0.72;entryY=0.94;entryDx=0;entryDy=0;entryPerimeter=0;" edge="1" parent="1" source="M6uvEseLIlFZfIpXj4Gl-101" target="M6uvEseLIlFZfIpXj4Gl-102">
          <mxGeometry relative="1" as="geometry" />
        </mxCell>
        <mxCell id="M6uvEseLIlFZfIpXj4Gl-107" style="edgeStyle=orthogonalEdgeStyle;rounded=0;orthogonalLoop=1;jettySize=auto;html=1;exitX=0.25;exitY=0;exitDx=0;exitDy=0;entryX=0.615;entryY=1.048;entryDx=0;entryDy=0;entryPerimeter=0;" edge="1" parent="1" source="M6uvEseLIlFZfIpXj4Gl-101" target="M6uvEseLIlFZfIpXj4Gl-103">
          <mxGeometry relative="1" as="geometry" />
        </mxCell>
        <mxCell id="M6uvEseLIlFZfIpXj4Gl-108" style="edgeStyle=orthogonalEdgeStyle;rounded=0;orthogonalLoop=1;jettySize=auto;html=1;exitX=0.75;exitY=0;exitDx=0;exitDy=0;entryX=0.049;entryY=0.839;entryDx=0;entryDy=0;entryPerimeter=0;" edge="1" parent="1" source="M6uvEseLIlFZfIpXj4Gl-101" target="M6uvEseLIlFZfIpXj4Gl-104">
          <mxGeometry relative="1" as="geometry" />
        </mxCell>
        <mxCell id="M6uvEseLIlFZfIpXj4Gl-109" style="edgeStyle=orthogonalEdgeStyle;rounded=0;orthogonalLoop=1;jettySize=auto;html=1;exitX=1;exitY=0.25;exitDx=0;exitDy=0;entryX=0;entryY=0.5;entryDx=0;entryDy=0;" edge="1" parent="1" source="M6uvEseLIlFZfIpXj4Gl-110" target="M6uvEseLIlFZfIpXj4Gl-114">
          <mxGeometry relative="1" as="geometry" />
        </mxCell>
        <mxCell id="M6uvEseLIlFZfIpXj4Gl-110" value="twofactorToken" style="rounded=1;arcSize=10;whiteSpace=wrap;html=1;align=center;" vertex="1" parent="1">
          <mxGeometry x="-1510" y="650" width="100" height="40" as="geometry" />
        </mxCell>
        <mxCell id="M6uvEseLIlFZfIpXj4Gl-111" value="email" style="ellipse;whiteSpace=wrap;html=1;align=center;" vertex="1" parent="1">
          <mxGeometry x="-1625" y="620" width="100" height="40" as="geometry" />
        </mxCell>
        <mxCell id="M6uvEseLIlFZfIpXj4Gl-112" value="token" style="ellipse;whiteSpace=wrap;html=1;align=center;" vertex="1" parent="1">
          <mxGeometry x="-1545" y="570" width="100" height="40" as="geometry" />
        </mxCell>
        <mxCell id="M6uvEseLIlFZfIpXj4Gl-113" value="expires" style="ellipse;whiteSpace=wrap;html=1;align=center;" vertex="1" parent="1">
          <mxGeometry x="-1435" y="585" width="100" height="40" as="geometry" />
        </mxCell>
        <mxCell id="M6uvEseLIlFZfIpXj4Gl-114" value="&amp;nbsp; &amp;nbsp;id&amp;nbsp; &amp;nbsp;" style="ellipse;whiteSpace=wrap;html=1;align=center;fontStyle=4;" vertex="1" parent="1">
          <mxGeometry x="-1395" y="640" width="100" height="40" as="geometry" />
        </mxCell>
        <mxCell id="M6uvEseLIlFZfIpXj4Gl-115" style="edgeStyle=orthogonalEdgeStyle;rounded=0;orthogonalLoop=1;jettySize=auto;html=1;exitX=0;exitY=0.25;exitDx=0;exitDy=0;entryX=0.72;entryY=0.94;entryDx=0;entryDy=0;entryPerimeter=0;" edge="1" parent="1" source="M6uvEseLIlFZfIpXj4Gl-110" target="M6uvEseLIlFZfIpXj4Gl-111">
          <mxGeometry relative="1" as="geometry" />
        </mxCell>
        <mxCell id="M6uvEseLIlFZfIpXj4Gl-116" style="edgeStyle=orthogonalEdgeStyle;rounded=0;orthogonalLoop=1;jettySize=auto;html=1;exitX=0.25;exitY=0;exitDx=0;exitDy=0;entryX=0.615;entryY=1.048;entryDx=0;entryDy=0;entryPerimeter=0;" edge="1" parent="1" source="M6uvEseLIlFZfIpXj4Gl-110" target="M6uvEseLIlFZfIpXj4Gl-112">
          <mxGeometry relative="1" as="geometry" />
        </mxCell>
        <mxCell id="M6uvEseLIlFZfIpXj4Gl-117" style="edgeStyle=orthogonalEdgeStyle;rounded=0;orthogonalLoop=1;jettySize=auto;html=1;exitX=0.75;exitY=0;exitDx=0;exitDy=0;entryX=0.049;entryY=0.839;entryDx=0;entryDy=0;entryPerimeter=0;" edge="1" parent="1" source="M6uvEseLIlFZfIpXj4Gl-110" target="M6uvEseLIlFZfIpXj4Gl-113">
          <mxGeometry relative="1" as="geometry" />
        </mxCell>
        <mxCell id="M6uvEseLIlFZfIpXj4Gl-119" value="&amp;nbsp; id&amp;nbsp;&amp;nbsp;" style="ellipse;whiteSpace=wrap;html=1;align=center;fontStyle=4;" vertex="1" parent="1">
          <mxGeometry x="60" y="520" width="100" height="40" as="geometry" />
        </mxCell>
        <mxCell id="M6uvEseLIlFZfIpXj4Gl-120" style="edgeStyle=orthogonalEdgeStyle;rounded=0;orthogonalLoop=1;jettySize=auto;html=1;entryX=1;entryY=0.5;entryDx=0;entryDy=0;" edge="1" parent="1" source="M6uvEseLIlFZfIpXj4Gl-124" target="M6uvEseLIlFZfIpXj4Gl-125">
          <mxGeometry relative="1" as="geometry">
            <Array as="points">
              <mxPoint x="220" y="490" />
            </Array>
          </mxGeometry>
        </mxCell>
        <mxCell id="M6uvEseLIlFZfIpXj4Gl-121" style="edgeStyle=orthogonalEdgeStyle;rounded=0;orthogonalLoop=1;jettySize=auto;html=1;entryX=0.5;entryY=1;entryDx=0;entryDy=0;" edge="1" parent="1" source="M6uvEseLIlFZfIpXj4Gl-124" target="M6uvEseLIlFZfIpXj4Gl-126">
          <mxGeometry relative="1" as="geometry" />
        </mxCell>
        <mxCell id="M6uvEseLIlFZfIpXj4Gl-122" style="edgeStyle=orthogonalEdgeStyle;rounded=0;orthogonalLoop=1;jettySize=auto;html=1;exitX=1;exitY=0.25;exitDx=0;exitDy=0;" edge="1" parent="1" source="M6uvEseLIlFZfIpXj4Gl-124">
          <mxGeometry relative="1" as="geometry">
            <Array as="points">
              <mxPoint x="330" y="610" />
              <mxPoint x="330" y="555" />
            </Array>
            <mxPoint x="350" y="555" as="targetPoint" />
          </mxGeometry>
        </mxCell>
        <mxCell id="M6uvEseLIlFZfIpXj4Gl-222" style="edgeStyle=orthogonalEdgeStyle;rounded=0;orthogonalLoop=1;jettySize=auto;html=1;exitX=0.75;exitY=0;exitDx=0;exitDy=0;entryX=0.25;entryY=1;entryDx=0;entryDy=0;" edge="1" parent="1">
          <mxGeometry relative="1" as="geometry">
            <mxPoint x="262.5" y="610" as="sourcePoint" />
            <mxPoint x="280" y="280" as="targetPoint" />
            <Array as="points">
              <mxPoint x="280" y="610" />
            </Array>
          </mxGeometry>
        </mxCell>
        <mxCell id="M6uvEseLIlFZfIpXj4Gl-124" value="product" style="rounded=1;arcSize=10;whiteSpace=wrap;html=1;align=center;" vertex="1" parent="1">
          <mxGeometry x="220" y="610" width="70" height="30" as="geometry" />
        </mxCell>
        <mxCell id="M6uvEseLIlFZfIpXj4Gl-125" value="description" style="ellipse;whiteSpace=wrap;html=1;align=center;" vertex="1" parent="1">
          <mxGeometry x="90" y="470" width="100" height="40" as="geometry" />
        </mxCell>
        <mxCell id="M6uvEseLIlFZfIpXj4Gl-295" style="edgeStyle=orthogonalEdgeStyle;rounded=0;orthogonalLoop=1;jettySize=auto;html=1;exitX=0;exitY=0;exitDx=0;exitDy=0;entryX=1;entryY=1;entryDx=0;entryDy=0;" edge="1" parent="1" source="M6uvEseLIlFZfIpXj4Gl-126" target="M6uvEseLIlFZfIpXj4Gl-294">
          <mxGeometry relative="1" as="geometry" />
        </mxCell>
        <mxCell id="M6uvEseLIlFZfIpXj4Gl-126" value="size/color" style="ellipse;shape=doubleEllipse;margin=3;whiteSpace=wrap;html=1;align=center;" vertex="1" parent="1">
          <mxGeometry x="190" y="440" width="80" height="40" as="geometry" />
        </mxCell>
        <mxCell id="M6uvEseLIlFZfIpXj4Gl-127" value="price" style="ellipse;whiteSpace=wrap;html=1;align=center;" vertex="1" parent="1">
          <mxGeometry x="300" y="440" width="100" height="40" as="geometry" />
        </mxCell>
        <mxCell id="M6uvEseLIlFZfIpXj4Gl-129" value="name" style="ellipse;whiteSpace=wrap;html=1;align=center;" vertex="1" parent="1">
          <mxGeometry x="60" y="570" width="100" height="40" as="geometry" />
        </mxCell>
        <mxCell id="M6uvEseLIlFZfIpXj4Gl-132" style="edgeStyle=orthogonalEdgeStyle;rounded=0;orthogonalLoop=1;jettySize=auto;html=1;entryX=0.943;entryY=0.669;entryDx=0;entryDy=0;entryPerimeter=0;" edge="1" parent="1" source="M6uvEseLIlFZfIpXj4Gl-124" target="M6uvEseLIlFZfIpXj4Gl-129">
          <mxGeometry relative="1" as="geometry" />
        </mxCell>
        <mxCell id="M6uvEseLIlFZfIpXj4Gl-133" style="edgeStyle=orthogonalEdgeStyle;rounded=0;orthogonalLoop=1;jettySize=auto;html=1;entryX=0.993;entryY=0.551;entryDx=0;entryDy=0;entryPerimeter=0;" edge="1" parent="1" source="M6uvEseLIlFZfIpXj4Gl-124" target="M6uvEseLIlFZfIpXj4Gl-119">
          <mxGeometry relative="1" as="geometry">
            <Array as="points">
              <mxPoint x="200" y="542" />
            </Array>
          </mxGeometry>
        </mxCell>
        <mxCell id="M6uvEseLIlFZfIpXj4Gl-134" style="edgeStyle=orthogonalEdgeStyle;rounded=0;orthogonalLoop=1;jettySize=auto;html=1;entryX=0.2;entryY=1;entryDx=0;entryDy=0;entryPerimeter=0;" edge="1" parent="1" source="M6uvEseLIlFZfIpXj4Gl-124" target="M6uvEseLIlFZfIpXj4Gl-127">
          <mxGeometry relative="1" as="geometry">
            <Array as="points">
              <mxPoint x="260" y="570" />
              <mxPoint x="300" y="570" />
              <mxPoint x="300" y="480" />
            </Array>
          </mxGeometry>
        </mxCell>
        <mxCell id="M6uvEseLIlFZfIpXj4Gl-135" style="edgeStyle=orthogonalEdgeStyle;rounded=0;orthogonalLoop=1;jettySize=auto;html=1;entryX=0;entryY=0.5;entryDx=0;entryDy=0;" edge="1" parent="1" source="M6uvEseLIlFZfIpXj4Gl-124" target="M6uvEseLIlFZfIpXj4Gl-144">
          <mxGeometry relative="1" as="geometry">
            <mxPoint x="348.6999999999998" y="619.45" as="targetPoint" />
          </mxGeometry>
        </mxCell>
        <mxCell id="M6uvEseLIlFZfIpXj4Gl-136" value="first_name" style="ellipse;whiteSpace=wrap;html=1;align=center;" vertex="1" parent="1">
          <mxGeometry x="-450" y="520" width="100" height="40" as="geometry" />
        </mxCell>
        <mxCell id="M6uvEseLIlFZfIpXj4Gl-137" value="last_name" style="ellipse;whiteSpace=wrap;html=1;align=center;" vertex="1" parent="1">
          <mxGeometry x="-425" y="450" width="70" height="40" as="geometry" />
        </mxCell>
        <mxCell id="M6uvEseLIlFZfIpXj4Gl-139" value="address" style="ellipse;whiteSpace=wrap;html=1;align=center;" vertex="1" parent="1">
          <mxGeometry x="-160" y="530" width="100" height="40" as="geometry" />
        </mxCell>
        <mxCell id="M6uvEseLIlFZfIpXj4Gl-140" style="edgeStyle=orthogonalEdgeStyle;rounded=0;orthogonalLoop=1;jettySize=auto;html=1;exitX=0;exitY=0.75;exitDx=0;exitDy=0;" edge="1" parent="1" source="M6uvEseLIlFZfIpXj4Gl-5" target="M6uvEseLIlFZfIpXj4Gl-136">
          <mxGeometry relative="1" as="geometry">
            <mxPoint x="-330" y="540" as="targetPoint" />
            <Array as="points">
              <mxPoint x="-270" y="540" />
            </Array>
          </mxGeometry>
        </mxCell>
        <mxCell id="M6uvEseLIlFZfIpXj4Gl-143" value="&lt;span style=&quot;border-bottom: 1px dotted&quot;&gt;categoryId&lt;/span&gt;" style="ellipse;whiteSpace=wrap;html=1;align=center;" vertex="1" parent="1">
          <mxGeometry x="350" y="540" width="100" height="40" as="geometry" />
        </mxCell>
        <mxCell id="M6uvEseLIlFZfIpXj4Gl-144" value="&lt;span style=&quot;border-bottom: 1px dotted&quot;&gt;sellerId&lt;/span&gt;" style="ellipse;whiteSpace=wrap;html=1;align=center;" vertex="1" parent="1">
          <mxGeometry x="350" y="625" width="100" height="40" as="geometry" />
        </mxCell>
        <mxCell id="M6uvEseLIlFZfIpXj4Gl-145" value="&amp;nbsp; id&amp;nbsp;&amp;nbsp;" style="ellipse;whiteSpace=wrap;html=1;align=center;fontStyle=4;" vertex="1" parent="1">
          <mxGeometry x="-100" y="920" width="100" height="40" as="geometry" />
        </mxCell>
        <mxCell id="M6uvEseLIlFZfIpXj4Gl-146" style="edgeStyle=orthogonalEdgeStyle;rounded=0;orthogonalLoop=1;jettySize=auto;html=1;entryX=1;entryY=0.5;entryDx=0;entryDy=0;" edge="1" parent="1" source="M6uvEseLIlFZfIpXj4Gl-150" target="M6uvEseLIlFZfIpXj4Gl-151">
          <mxGeometry relative="1" as="geometry">
            <Array as="points">
              <mxPoint x="50" y="1025" />
              <mxPoint x="50" y="890" />
            </Array>
          </mxGeometry>
        </mxCell>
        <mxCell id="M6uvEseLIlFZfIpXj4Gl-147" style="edgeStyle=orthogonalEdgeStyle;rounded=0;orthogonalLoop=1;jettySize=auto;html=1;entryX=0.5;entryY=1;entryDx=0;entryDy=0;" edge="1" parent="1" source="M6uvEseLIlFZfIpXj4Gl-150" target="M6uvEseLIlFZfIpXj4Gl-152">
          <mxGeometry relative="1" as="geometry" />
        </mxCell>
        <mxCell id="M6uvEseLIlFZfIpXj4Gl-150" value="category" style="rounded=1;arcSize=10;whiteSpace=wrap;html=1;align=center;" vertex="1" parent="1">
          <mxGeometry x="60" y="1010" width="70" height="30" as="geometry" />
        </mxCell>
        <mxCell id="M6uvEseLIlFZfIpXj4Gl-151" value="description" style="ellipse;whiteSpace=wrap;html=1;align=center;" vertex="1" parent="1">
          <mxGeometry x="-70" y="870" width="100" height="40" as="geometry" />
        </mxCell>
        <mxCell id="M6uvEseLIlFZfIpXj4Gl-152" value="status" style="ellipse;whiteSpace=wrap;html=1;align=center;" vertex="1" parent="1">
          <mxGeometry x="60" y="880" width="90" height="40" as="geometry" />
        </mxCell>
        <mxCell id="M6uvEseLIlFZfIpXj4Gl-153" value="image" style="ellipse;whiteSpace=wrap;html=1;align=center;" vertex="1" parent="1">
          <mxGeometry x="160" y="920" width="100" height="40" as="geometry" />
        </mxCell>
        <mxCell id="M6uvEseLIlFZfIpXj4Gl-155" value="name" style="ellipse;whiteSpace=wrap;html=1;align=center;" vertex="1" parent="1">
          <mxGeometry x="-100" y="970" width="100" height="40" as="geometry" />
        </mxCell>
        <mxCell id="M6uvEseLIlFZfIpXj4Gl-156" style="edgeStyle=orthogonalEdgeStyle;rounded=0;orthogonalLoop=1;jettySize=auto;html=1;entryX=0.943;entryY=0.669;entryDx=0;entryDy=0;entryPerimeter=0;" edge="1" parent="1" source="M6uvEseLIlFZfIpXj4Gl-150" target="M6uvEseLIlFZfIpXj4Gl-155">
          <mxGeometry relative="1" as="geometry" />
        </mxCell>
        <mxCell id="M6uvEseLIlFZfIpXj4Gl-157" style="edgeStyle=orthogonalEdgeStyle;rounded=0;orthogonalLoop=1;jettySize=auto;html=1;entryX=0.993;entryY=0.551;entryDx=0;entryDy=0;entryPerimeter=0;" edge="1" parent="1" source="M6uvEseLIlFZfIpXj4Gl-150" target="M6uvEseLIlFZfIpXj4Gl-145">
          <mxGeometry relative="1" as="geometry">
            <Array as="points">
              <mxPoint x="40" y="942" />
            </Array>
          </mxGeometry>
        </mxCell>
        <mxCell id="M6uvEseLIlFZfIpXj4Gl-158" style="edgeStyle=orthogonalEdgeStyle;rounded=0;orthogonalLoop=1;jettySize=auto;html=1;" edge="1" parent="1" source="M6uvEseLIlFZfIpXj4Gl-150">
          <mxGeometry relative="1" as="geometry">
            <Array as="points">
              <mxPoint x="100" y="970" />
              <mxPoint x="220" y="970" />
            </Array>
            <mxPoint x="220" y="960" as="targetPoint" />
          </mxGeometry>
        </mxCell>
        <mxCell id="M6uvEseLIlFZfIpXj4Gl-163" style="edgeStyle=orthogonalEdgeStyle;rounded=0;orthogonalLoop=1;jettySize=auto;html=1;entryX=1;entryY=0.5;entryDx=0;entryDy=0;" edge="1" parent="1" source="M6uvEseLIlFZfIpXj4Gl-165" target="M6uvEseLIlFZfIpXj4Gl-166">
          <mxGeometry relative="1" as="geometry">
            <Array as="points">
              <mxPoint x="280" y="160" />
            </Array>
          </mxGeometry>
        </mxCell>
        <mxCell id="M6uvEseLIlFZfIpXj4Gl-164" style="edgeStyle=orthogonalEdgeStyle;rounded=0;orthogonalLoop=1;jettySize=auto;html=1;entryX=0.5;entryY=1;entryDx=0;entryDy=0;" edge="1" parent="1" source="M6uvEseLIlFZfIpXj4Gl-165" target="M6uvEseLIlFZfIpXj4Gl-167">
          <mxGeometry relative="1" as="geometry" />
        </mxCell>
        <mxCell id="M6uvEseLIlFZfIpXj4Gl-165" value="product_images" style="shape=ext;margin=3;double=1;whiteSpace=wrap;html=1;align=center;" vertex="1" parent="1">
          <mxGeometry x="260" y="250" width="120" height="30" as="geometry" />
        </mxCell>
        <mxCell id="M6uvEseLIlFZfIpXj4Gl-166" value="alt" style="ellipse;whiteSpace=wrap;html=1;align=center;" vertex="1" parent="1">
          <mxGeometry x="120" y="140" width="100" height="40" as="geometry" />
        </mxCell>
        <mxCell id="M6uvEseLIlFZfIpXj4Gl-167" value="orderNo" style="ellipse;whiteSpace=wrap;html=1;align=center;" vertex="1" parent="1">
          <mxGeometry x="280" y="115" width="100" height="40" as="geometry" />
        </mxCell>
        <mxCell id="M6uvEseLIlFZfIpXj4Gl-169" value="image" style="ellipse;whiteSpace=wrap;html=1;align=center;" vertex="1" parent="1">
          <mxGeometry x="110" y="205" width="100" height="40" as="geometry" />
        </mxCell>
        <mxCell id="M6uvEseLIlFZfIpXj4Gl-170" style="edgeStyle=orthogonalEdgeStyle;rounded=0;orthogonalLoop=1;jettySize=auto;html=1;entryX=0.943;entryY=0.669;entryDx=0;entryDy=0;entryPerimeter=0;" edge="1" parent="1" source="M6uvEseLIlFZfIpXj4Gl-165" target="M6uvEseLIlFZfIpXj4Gl-169">
          <mxGeometry relative="1" as="geometry" />
        </mxCell>
        <mxCell id="M6uvEseLIlFZfIpXj4Gl-172" style="edgeStyle=orthogonalEdgeStyle;rounded=0;orthogonalLoop=1;jettySize=auto;html=1;entryX=0.2;entryY=1;entryDx=0;entryDy=0;entryPerimeter=0;" edge="1" parent="1" source="M6uvEseLIlFZfIpXj4Gl-165">
          <mxGeometry relative="1" as="geometry">
            <Array as="points">
              <mxPoint x="370" y="205" />
              <mxPoint x="410" y="205" />
            </Array>
            <mxPoint x="410" y="194.99999999999994" as="targetPoint" />
          </mxGeometry>
        </mxCell>
        <mxCell id="M6uvEseLIlFZfIpXj4Gl-173" value="&lt;span style=&quot;border-bottom: 1px dotted&quot;&gt;productId&lt;/span&gt;" style="ellipse;whiteSpace=wrap;html=1;align=center;" vertex="1" parent="1">
          <mxGeometry x="360" y="155" width="100" height="40" as="geometry" />
        </mxCell>
        <mxCell id="M6uvEseLIlFZfIpXj4Gl-188" style="edgeStyle=orthogonalEdgeStyle;rounded=0;orthogonalLoop=1;jettySize=auto;html=1;exitX=0.25;exitY=1;exitDx=0;exitDy=0;entryX=0.5;entryY=1;entryDx=0;entryDy=0;" edge="1" parent="1" source="M6uvEseLIlFZfIpXj4Gl-177" target="M6uvEseLIlFZfIpXj4Gl-180">
          <mxGeometry relative="1" as="geometry" />
        </mxCell>
        <mxCell id="M6uvEseLIlFZfIpXj4Gl-177" value="product_tags" style="shape=ext;margin=3;double=1;whiteSpace=wrap;html=1;align=center;" vertex="1" parent="1">
          <mxGeometry x="480" y="440" width="120" height="30" as="geometry" />
        </mxCell>
        <mxCell id="M6uvEseLIlFZfIpXj4Gl-180" value="tag" style="ellipse;whiteSpace=wrap;html=1;align=center;" vertex="1" parent="1">
          <mxGeometry x="400" y="365" width="100" height="40" as="geometry" />
        </mxCell>
        <mxCell id="M6uvEseLIlFZfIpXj4Gl-184" value="&lt;span style=&quot;border-bottom: 1px dotted&quot;&gt;productId&lt;/span&gt;" style="ellipse;whiteSpace=wrap;html=1;align=center;" vertex="1" parent="1">
          <mxGeometry x="580" y="330" width="100" height="40" as="geometry" />
        </mxCell>
        <mxCell id="M6uvEseLIlFZfIpXj4Gl-187" style="edgeStyle=orthogonalEdgeStyle;rounded=0;orthogonalLoop=1;jettySize=auto;html=1;exitX=0.75;exitY=1;exitDx=0;exitDy=0;entryX=0.5;entryY=1;entryDx=0;entryDy=0;" edge="1" parent="1" source="M6uvEseLIlFZfIpXj4Gl-177" target="M6uvEseLIlFZfIpXj4Gl-184">
          <mxGeometry relative="1" as="geometry" />
        </mxCell>
        <mxCell id="M6uvEseLIlFZfIpXj4Gl-189" value="has" style="shape=rhombus;perimeter=rhombusPerimeter;whiteSpace=wrap;html=1;align=center;" vertex="1" parent="1">
          <mxGeometry x="-500" y="650" width="120" height="60" as="geometry" />
        </mxCell>
        <mxCell id="M6uvEseLIlFZfIpXj4Gl-196" value="" style="edgeStyle=entityRelationEdgeStyle;fontSize=12;html=1;endArrow=ERmandOne;rounded=0;exitX=1;exitY=0.5;exitDx=0;exitDy=0;" edge="1" parent="1" source="M6uvEseLIlFZfIpXj4Gl-189">
          <mxGeometry width="100" height="100" relative="1" as="geometry">
            <mxPoint x="-530" y="610" as="sourcePoint" />
            <mxPoint x="-270" y="520" as="targetPoint" />
            <Array as="points">
              <mxPoint x="-360" y="510" />
              <mxPoint x="-290" y="520" />
            </Array>
          </mxGeometry>
        </mxCell>
        <mxCell id="M6uvEseLIlFZfIpXj4Gl-197" value="" style="edgeStyle=orthogonalEdgeStyle;fontSize=12;html=1;endArrow=ERzeroToOne;endFill=1;rounded=0;" edge="1" parent="1" source="M6uvEseLIlFZfIpXj4Gl-189" target="M6uvEseLIlFZfIpXj4Gl-46">
          <mxGeometry width="100" height="100" relative="1" as="geometry">
            <mxPoint x="-470" y="760" as="sourcePoint" />
            <mxPoint x="-370" y="660" as="targetPoint" />
            <Array as="points">
              <mxPoint x="-520" y="710" />
              <mxPoint x="-520" y="710" />
            </Array>
          </mxGeometry>
        </mxCell>
        <mxCell id="M6uvEseLIlFZfIpXj4Gl-200" style="edgeStyle=orthogonalEdgeStyle;rounded=0;orthogonalLoop=1;jettySize=auto;html=1;exitX=0;exitY=0;exitDx=0;exitDy=0;entryX=1;entryY=0.5;entryDx=0;entryDy=0;" edge="1" parent="1" source="M6uvEseLIlFZfIpXj4Gl-5" target="M6uvEseLIlFZfIpXj4Gl-137">
          <mxGeometry relative="1" as="geometry">
            <Array as="points">
              <mxPoint x="-312" y="490" />
              <mxPoint x="-312" y="470" />
            </Array>
          </mxGeometry>
        </mxCell>
        <mxCell id="M6uvEseLIlFZfIpXj4Gl-204" style="edgeStyle=orthogonalEdgeStyle;fontSize=12;html=1;endArrow=ERmandOne;rounded=0;exitX=0.5;exitY=1;exitDx=0;exitDy=0;" edge="1" parent="1" source="M6uvEseLIlFZfIpXj4Gl-202" target="M6uvEseLIlFZfIpXj4Gl-5">
          <mxGeometry relative="1" as="geometry">
            <Array as="points">
              <mxPoint x="-580" y="460" />
              <mxPoint x="-490" y="460" />
              <mxPoint x="-490" y="505" />
            </Array>
          </mxGeometry>
        </mxCell>
        <mxCell id="M6uvEseLIlFZfIpXj4Gl-205" style="fontSize=12;html=1;endArrow=ERmandOne;rounded=0;exitX=0.5;exitY=0;exitDx=0;exitDy=0;" edge="1" parent="1" source="M6uvEseLIlFZfIpXj4Gl-202" target="M6uvEseLIlFZfIpXj4Gl-74">
          <mxGeometry relative="1" as="geometry" />
        </mxCell>
        <mxCell id="M6uvEseLIlFZfIpXj4Gl-202" value="has" style="shape=rhombus;perimeter=rhombusPerimeter;whiteSpace=wrap;html=1;align=center;" vertex="1" parent="1">
          <mxGeometry x="-640" y="370" width="120" height="60" as="geometry" />
        </mxCell>
        <mxCell id="M6uvEseLIlFZfIpXj4Gl-213" style="edgeStyle=orthogonalEdgeStyle;fontSize=12;html=1;endArrow=ERzeroToMany;endFill=1;rounded=0;" edge="1" parent="1" source="M6uvEseLIlFZfIpXj4Gl-212" target="M6uvEseLIlFZfIpXj4Gl-124">
          <mxGeometry relative="1" as="geometry" />
        </mxCell>
        <mxCell id="M6uvEseLIlFZfIpXj4Gl-214" style="edgeStyle=orthogonalEdgeStyle;fontSize=12;html=1;endArrow=ERmandOne;rounded=0;exitX=1;exitY=0.5;exitDx=0;exitDy=0;" edge="1" parent="1" source="M6uvEseLIlFZfIpXj4Gl-212" target="M6uvEseLIlFZfIpXj4Gl-5">
          <mxGeometry relative="1" as="geometry">
            <Array as="points">
              <mxPoint x="-170" y="700" />
              <mxPoint x="-170" y="580" />
              <mxPoint x="-230" y="580" />
            </Array>
          </mxGeometry>
        </mxCell>
        <mxCell id="M6uvEseLIlFZfIpXj4Gl-212" value="sells" style="shape=rhombus;perimeter=rhombusPerimeter;whiteSpace=wrap;html=1;align=center;" vertex="1" parent="1">
          <mxGeometry x="-60" y="670" width="120" height="60" as="geometry" />
        </mxCell>
        <mxCell id="M6uvEseLIlFZfIpXj4Gl-218" style="edgeStyle=orthogonalEdgeStyle;fontSize=12;html=1;endArrow=ERzeroToMany;endFill=1;rounded=0;entryX=0.75;entryY=1;entryDx=0;entryDy=0;" edge="1" parent="1" source="M6uvEseLIlFZfIpXj4Gl-217" target="M6uvEseLIlFZfIpXj4Gl-124">
          <mxGeometry relative="1" as="geometry" />
        </mxCell>
        <mxCell id="M6uvEseLIlFZfIpXj4Gl-219" style="edgeStyle=orthogonalEdgeStyle;fontSize=12;html=1;endArrow=ERmandOne;endFill=1;rounded=0;entryX=1;entryY=0.25;entryDx=0;entryDy=0;exitX=0.5;exitY=1;exitDx=0;exitDy=0;" edge="1" parent="1" source="M6uvEseLIlFZfIpXj4Gl-217" target="M6uvEseLIlFZfIpXj4Gl-150">
          <mxGeometry relative="1" as="geometry">
            <mxPoint x="390" y="1010" as="targetPoint" />
            <Array as="points">
              <mxPoint x="160" y="1017" />
            </Array>
          </mxGeometry>
        </mxCell>
        <mxCell id="M6uvEseLIlFZfIpXj4Gl-217" value="has" style="shape=rhombus;perimeter=rhombusPerimeter;whiteSpace=wrap;html=1;align=center;" vertex="1" parent="1">
          <mxGeometry x="100" y="750" width="120" height="60" as="geometry" />
        </mxCell>
        <mxCell id="M6uvEseLIlFZfIpXj4Gl-224" value="&amp;nbsp; id&amp;nbsp;&amp;nbsp;" style="ellipse;whiteSpace=wrap;html=1;align=center;fontStyle=4;" vertex="1" parent="1">
          <mxGeometry x="440" y="840" width="100" height="40" as="geometry" />
        </mxCell>
        <mxCell id="M6uvEseLIlFZfIpXj4Gl-225" style="edgeStyle=orthogonalEdgeStyle;rounded=0;orthogonalLoop=1;jettySize=auto;html=1;entryX=1;entryY=0.5;entryDx=0;entryDy=0;" edge="1" parent="1" source="M6uvEseLIlFZfIpXj4Gl-227" target="M6uvEseLIlFZfIpXj4Gl-228">
          <mxGeometry relative="1" as="geometry">
            <Array as="points">
              <mxPoint x="590" y="945" />
              <mxPoint x="590" y="810" />
            </Array>
          </mxGeometry>
        </mxCell>
        <mxCell id="M6uvEseLIlFZfIpXj4Gl-227" value="order" style="rounded=1;arcSize=10;whiteSpace=wrap;html=1;align=center;" vertex="1" parent="1">
          <mxGeometry x="600" y="930" width="70" height="30" as="geometry" />
        </mxCell>
        <mxCell id="M6uvEseLIlFZfIpXj4Gl-228" value="date_time" style="ellipse;whiteSpace=wrap;html=1;align=center;" vertex="1" parent="1">
          <mxGeometry x="470" y="790" width="100" height="40" as="geometry" />
        </mxCell>
        <mxCell id="M6uvEseLIlFZfIpXj4Gl-231" value="status" style="ellipse;whiteSpace=wrap;html=1;align=center;" vertex="1" parent="1">
          <mxGeometry x="440" y="890" width="100" height="40" as="geometry" />
        </mxCell>
        <mxCell id="M6uvEseLIlFZfIpXj4Gl-232" style="edgeStyle=orthogonalEdgeStyle;rounded=0;orthogonalLoop=1;jettySize=auto;html=1;entryX=0.943;entryY=0.669;entryDx=0;entryDy=0;entryPerimeter=0;" edge="1" parent="1" source="M6uvEseLIlFZfIpXj4Gl-227" target="M6uvEseLIlFZfIpXj4Gl-231">
          <mxGeometry relative="1" as="geometry" />
        </mxCell>
        <mxCell id="M6uvEseLIlFZfIpXj4Gl-233" style="edgeStyle=orthogonalEdgeStyle;rounded=0;orthogonalLoop=1;jettySize=auto;html=1;entryX=0.993;entryY=0.551;entryDx=0;entryDy=0;entryPerimeter=0;" edge="1" parent="1" source="M6uvEseLIlFZfIpXj4Gl-227" target="M6uvEseLIlFZfIpXj4Gl-224">
          <mxGeometry relative="1" as="geometry">
            <Array as="points">
              <mxPoint x="580" y="862" />
            </Array>
          </mxGeometry>
        </mxCell>
        <mxCell id="M6uvEseLIlFZfIpXj4Gl-235" value="&lt;span style=&quot;border-bottom: 1px dotted&quot;&gt;userId&lt;/span&gt;" style="ellipse;whiteSpace=wrap;html=1;align=center;" vertex="1" parent="1">
          <mxGeometry x="450" y="950" width="100" height="40" as="geometry" />
        </mxCell>
        <mxCell id="M6uvEseLIlFZfIpXj4Gl-236" style="edgeStyle=orthogonalEdgeStyle;rounded=0;orthogonalLoop=1;jettySize=auto;html=1;exitX=0;exitY=0.75;exitDx=0;exitDy=0;entryX=1;entryY=0.5;entryDx=0;entryDy=0;" edge="1" parent="1" source="M6uvEseLIlFZfIpXj4Gl-227" target="M6uvEseLIlFZfIpXj4Gl-235">
          <mxGeometry relative="1" as="geometry" />
        </mxCell>
        <mxCell id="M6uvEseLIlFZfIpXj4Gl-238" value="&amp;nbsp; id&amp;nbsp;&amp;nbsp;" style="ellipse;whiteSpace=wrap;html=1;align=center;fontStyle=4;" vertex="1" parent="1">
          <mxGeometry x="740" y="570" width="100" height="40" as="geometry" />
        </mxCell>
        <mxCell id="M6uvEseLIlFZfIpXj4Gl-239" style="edgeStyle=orthogonalEdgeStyle;rounded=0;orthogonalLoop=1;jettySize=auto;html=1;entryX=1;entryY=0.5;entryDx=0;entryDy=0;exitX=0.75;exitY=0;exitDx=0;exitDy=0;" edge="1" parent="1" source="M6uvEseLIlFZfIpXj4Gl-240" target="M6uvEseLIlFZfIpXj4Gl-241">
          <mxGeometry relative="1" as="geometry">
            <Array as="points">
              <mxPoint x="693" y="675" />
              <mxPoint x="690" y="675" />
              <mxPoint x="690" y="540" />
            </Array>
          </mxGeometry>
        </mxCell>
        <mxCell id="M6uvEseLIlFZfIpXj4Gl-249" style="edgeStyle=orthogonalEdgeStyle;rounded=0;orthogonalLoop=1;jettySize=auto;html=1;entryX=0;entryY=1;entryDx=0;entryDy=0;" edge="1" parent="1" source="M6uvEseLIlFZfIpXj4Gl-240" target="M6uvEseLIlFZfIpXj4Gl-247">
          <mxGeometry relative="1" as="geometry" />
        </mxCell>
        <mxCell id="M6uvEseLIlFZfIpXj4Gl-264" style="fontSize=12;html=1;endArrow=ERzeroToMany;endFill=1;rounded=0;edgeStyle=orthogonalEdgeStyle;entryX=0.75;entryY=0;entryDx=0;entryDy=0;" edge="1" parent="1" source="M6uvEseLIlFZfIpXj4Gl-240" target="M6uvEseLIlFZfIpXj4Gl-227">
          <mxGeometry relative="1" as="geometry">
            <mxPoint x="650" y="910" as="targetPoint" />
          </mxGeometry>
        </mxCell>
        <mxCell id="M6uvEseLIlFZfIpXj4Gl-240" value="product_order" style="shape=ext;margin=3;double=1;whiteSpace=wrap;html=1;align=center;" vertex="1" parent="1">
          <mxGeometry x="640" y="660" width="90" height="30" as="geometry" />
        </mxCell>
        <mxCell id="M6uvEseLIlFZfIpXj4Gl-241" value="quantity" style="ellipse;whiteSpace=wrap;html=1;align=center;" vertex="1" parent="1">
          <mxGeometry x="770" y="520" width="100" height="40" as="geometry" />
        </mxCell>
        <mxCell id="M6uvEseLIlFZfIpXj4Gl-244" style="edgeStyle=orthogonalEdgeStyle;rounded=0;orthogonalLoop=1;jettySize=auto;html=1;entryX=0;entryY=0.5;entryDx=0;entryDy=0;" edge="1" parent="1" source="M6uvEseLIlFZfIpXj4Gl-240" target="M6uvEseLIlFZfIpXj4Gl-238">
          <mxGeometry relative="1" as="geometry">
            <Array as="points">
              <mxPoint x="675" y="590" />
            </Array>
          </mxGeometry>
        </mxCell>
        <mxCell id="M6uvEseLIlFZfIpXj4Gl-245" value="&lt;span style=&quot;border-bottom: 1px dotted&quot;&gt;productId&lt;/span&gt;" style="ellipse;whiteSpace=wrap;html=1;align=center;" vertex="1" parent="1">
          <mxGeometry x="750" y="680" width="100" height="40" as="geometry" />
        </mxCell>
        <mxCell id="M6uvEseLIlFZfIpXj4Gl-246" style="edgeStyle=orthogonalEdgeStyle;rounded=0;orthogonalLoop=1;jettySize=auto;html=1;exitX=0.5;exitY=1;exitDx=0;exitDy=0;entryX=0;entryY=0.5;entryDx=0;entryDy=0;" edge="1" parent="1" source="M6uvEseLIlFZfIpXj4Gl-240" target="M6uvEseLIlFZfIpXj4Gl-245">
          <mxGeometry relative="1" as="geometry">
            <Array as="points">
              <mxPoint x="675" y="690" />
              <mxPoint x="675" y="710" />
              <mxPoint x="750" y="710" />
            </Array>
          </mxGeometry>
        </mxCell>
        <mxCell id="M6uvEseLIlFZfIpXj4Gl-247" value="&lt;span style=&quot;border-bottom: 1px dotted&quot;&gt;orderId&lt;/span&gt;" style="ellipse;whiteSpace=wrap;html=1;align=center;" vertex="1" parent="1">
          <mxGeometry x="750" y="630" width="100" height="40" as="geometry" />
        </mxCell>
        <mxCell id="M6uvEseLIlFZfIpXj4Gl-254" style="edgeStyle=orthogonalEdgeStyle;fontSize=12;html=1;endArrow=ERzeroToMany;endFill=1;rounded=0;" edge="1" parent="1" source="M6uvEseLIlFZfIpXj4Gl-252" target="M6uvEseLIlFZfIpXj4Gl-227">
          <mxGeometry relative="1" as="geometry" />
        </mxCell>
        <mxCell id="M6uvEseLIlFZfIpXj4Gl-252" value="places" style="shape=rhombus;perimeter=rhombusPerimeter;whiteSpace=wrap;html=1;align=center;" vertex="1" parent="1">
          <mxGeometry x="300" y="1030" width="120" height="60" as="geometry" />
        </mxCell>
        <mxCell id="M6uvEseLIlFZfIpXj4Gl-255" style="edgeStyle=orthogonalEdgeStyle;fontSize=12;html=1;endArrow=ERmandOne;endFill=1;rounded=0;" edge="1" parent="1">
          <mxGeometry relative="1" as="geometry">
            <mxPoint x="300" y="1060" as="sourcePoint" />
            <mxPoint x="-249.99652173913006" y="519.9999999999999" as="targetPoint" />
            <Array as="points">
              <mxPoint x="-250" y="1060" />
            </Array>
          </mxGeometry>
        </mxCell>
        <mxCell id="M6uvEseLIlFZfIpXj4Gl-260" style="edgeStyle=orthogonalEdgeStyle;fontSize=12;html=1;endArrow=ERoneToMany;rounded=0;entryX=1;entryY=0.25;entryDx=0;entryDy=0;exitX=0;exitY=0.5;exitDx=0;exitDy=0;" edge="1" parent="1" source="M6uvEseLIlFZfIpXj4Gl-240" target="M6uvEseLIlFZfIpXj4Gl-124">
          <mxGeometry relative="1" as="geometry">
            <mxPoint x="610.0000000000005" y="685.0000000000002" as="sourcePoint" />
            <mxPoint x="610.0000000000005" y="594.9999999999999" as="targetPoint" />
            <Array as="points">
              <mxPoint x="610" y="675" />
              <mxPoint x="610" y="618" />
            </Array>
          </mxGeometry>
        </mxCell>
        <mxCell id="M6uvEseLIlFZfIpXj4Gl-263" style="edgeStyle=orthogonalEdgeStyle;rounded=0;orthogonalLoop=1;jettySize=auto;html=1;entryX=0.4;entryY=1.006;entryDx=0;entryDy=0;entryPerimeter=0;" edge="1" parent="1" source="M6uvEseLIlFZfIpXj4Gl-124" target="M6uvEseLIlFZfIpXj4Gl-177">
          <mxGeometry relative="1" as="geometry">
            <Array as="points">
              <mxPoint x="270" y="530" />
              <mxPoint x="528" y="530" />
            </Array>
          </mxGeometry>
        </mxCell>
        <mxCell id="M6uvEseLIlFZfIpXj4Gl-266" value="&amp;nbsp; id&amp;nbsp;&amp;nbsp;" style="ellipse;whiteSpace=wrap;html=1;align=center;fontStyle=4;" vertex="1" parent="1">
          <mxGeometry x="-140" y="-10" width="100" height="40" as="geometry" />
        </mxCell>
        <mxCell id="M6uvEseLIlFZfIpXj4Gl-268" style="edgeStyle=orthogonalEdgeStyle;rounded=0;orthogonalLoop=1;jettySize=auto;html=1;entryX=0;entryY=1;entryDx=0;entryDy=0;" edge="1" parent="1" source="M6uvEseLIlFZfIpXj4Gl-269" target="M6uvEseLIlFZfIpXj4Gl-274">
          <mxGeometry relative="1" as="geometry" />
        </mxCell>
        <mxCell id="M6uvEseLIlFZfIpXj4Gl-279" style="edgeStyle=orthogonalEdgeStyle;rounded=0;orthogonalLoop=1;jettySize=auto;html=1;entryX=0;entryY=0.5;entryDx=0;entryDy=0;" edge="1" parent="1" source="M6uvEseLIlFZfIpXj4Gl-269" target="M6uvEseLIlFZfIpXj4Gl-270">
          <mxGeometry relative="1" as="geometry">
            <Array as="points">
              <mxPoint x="-195" y="-40" />
            </Array>
          </mxGeometry>
        </mxCell>
        <mxCell id="M6uvEseLIlFZfIpXj4Gl-280" style="edgeStyle=orthogonalEdgeStyle;rounded=0;orthogonalLoop=1;jettySize=auto;html=1;exitX=0.5;exitY=1;exitDx=0;exitDy=0;" edge="1" parent="1" source="M6uvEseLIlFZfIpXj4Gl-269" target="M6uvEseLIlFZfIpXj4Gl-272">
          <mxGeometry relative="1" as="geometry">
            <mxPoint x="-128" y="129" as="targetPoint" />
            <Array as="points">
              <mxPoint x="-195" y="129" />
            </Array>
          </mxGeometry>
        </mxCell>
        <mxCell id="M6uvEseLIlFZfIpXj4Gl-269" value="feedback" style="rounded=1;arcSize=10;whiteSpace=wrap;html=1;align=center;" vertex="1" parent="1">
          <mxGeometry x="-240" y="80" width="90" height="30" as="geometry" />
        </mxCell>
        <mxCell id="M6uvEseLIlFZfIpXj4Gl-270" value="rating" style="ellipse;whiteSpace=wrap;html=1;align=center;" vertex="1" parent="1">
          <mxGeometry x="-110" y="-60" width="100" height="40" as="geometry" />
        </mxCell>
        <mxCell id="M6uvEseLIlFZfIpXj4Gl-271" style="edgeStyle=orthogonalEdgeStyle;rounded=0;orthogonalLoop=1;jettySize=auto;html=1;entryX=0;entryY=0.5;entryDx=0;entryDy=0;" edge="1" parent="1" source="M6uvEseLIlFZfIpXj4Gl-269" target="M6uvEseLIlFZfIpXj4Gl-266">
          <mxGeometry relative="1" as="geometry">
            <Array as="points">
              <mxPoint x="-205" y="10" />
            </Array>
          </mxGeometry>
        </mxCell>
        <mxCell id="M6uvEseLIlFZfIpXj4Gl-272" value="&lt;span style=&quot;border-bottom: 1px dotted&quot;&gt;productId&lt;/span&gt;" style="ellipse;whiteSpace=wrap;html=1;align=center;" vertex="1" parent="1">
          <mxGeometry x="-130" y="100" width="100" height="40" as="geometry" />
        </mxCell>
        <mxCell id="M6uvEseLIlFZfIpXj4Gl-274" value="&lt;span style=&quot;border-bottom: 1px dotted&quot;&gt;userId&lt;/span&gt;" style="ellipse;whiteSpace=wrap;html=1;align=center;" vertex="1" parent="1">
          <mxGeometry x="-130" y="50" width="100" height="40" as="geometry" />
        </mxCell>
        <mxCell id="M6uvEseLIlFZfIpXj4Gl-276" value="reviews" style="ellipse;whiteSpace=wrap;html=1;align=center;" vertex="1" parent="1">
          <mxGeometry x="-310" y="-30" width="100" height="40" as="geometry" />
        </mxCell>
        <mxCell id="M6uvEseLIlFZfIpXj4Gl-277" style="edgeStyle=orthogonalEdgeStyle;rounded=0;orthogonalLoop=1;jettySize=auto;html=1;entryX=0.336;entryY=1.079;entryDx=0;entryDy=0;entryPerimeter=0;" edge="1" parent="1" source="M6uvEseLIlFZfIpXj4Gl-269" target="M6uvEseLIlFZfIpXj4Gl-276">
          <mxGeometry relative="1" as="geometry">
            <Array as="points">
              <mxPoint x="-276" y="95" />
              <mxPoint x="-276" y="45" />
            </Array>
          </mxGeometry>
        </mxCell>
        <mxCell id="M6uvEseLIlFZfIpXj4Gl-282" style="edgeStyle=orthogonalEdgeStyle;fontSize=12;html=1;endArrow=ERmandOne;endFill=1;rounded=0;exitX=0.5;exitY=1;exitDx=0;exitDy=0;" edge="1" parent="1" source="M6uvEseLIlFZfIpXj4Gl-284">
          <mxGeometry relative="1" as="geometry">
            <mxPoint x="-217.02999999999977" y="110" as="sourcePoint" />
            <mxPoint x="-209.99969696969677" y="490" as="targetPoint" />
            <Array as="points">
              <mxPoint x="-195" y="380" />
              <mxPoint x="-210" y="380" />
            </Array>
          </mxGeometry>
        </mxCell>
        <mxCell id="M6uvEseLIlFZfIpXj4Gl-284" value="gives" style="shape=rhombus;perimeter=rhombusPerimeter;whiteSpace=wrap;html=1;align=center;" vertex="1" parent="1">
          <mxGeometry x="-255" y="205" width="120" height="60" as="geometry" />
        </mxCell>
        <mxCell id="M6uvEseLIlFZfIpXj4Gl-285" value="" style="edgeStyle=orthogonalEdgeStyle;fontSize=12;html=1;endArrow=ERzeroToMany;endFill=1;rounded=0;entryX=0.25;entryY=1;entryDx=0;entryDy=0;exitX=0.5;exitY=0;exitDx=0;exitDy=0;" edge="1" parent="1" source="M6uvEseLIlFZfIpXj4Gl-284" target="M6uvEseLIlFZfIpXj4Gl-269">
          <mxGeometry width="100" height="100" relative="1" as="geometry">
            <mxPoint x="-280" y="240" as="sourcePoint" />
            <mxPoint x="-180" y="140" as="targetPoint" />
          </mxGeometry>
        </mxCell>
        <mxCell id="M6uvEseLIlFZfIpXj4Gl-286" value="date_submited" style="ellipse;whiteSpace=wrap;html=1;align=center;" vertex="1" parent="1">
          <mxGeometry x="-390" y="40" width="100" height="40" as="geometry" />
        </mxCell>
        <mxCell id="M6uvEseLIlFZfIpXj4Gl-287" style="edgeStyle=orthogonalEdgeStyle;rounded=0;orthogonalLoop=1;jettySize=auto;html=1;exitX=0;exitY=0.75;exitDx=0;exitDy=0;entryX=0.3;entryY=1;entryDx=0;entryDy=0;entryPerimeter=0;" edge="1" parent="1" source="M6uvEseLIlFZfIpXj4Gl-269" target="M6uvEseLIlFZfIpXj4Gl-286">
          <mxGeometry relative="1" as="geometry" />
        </mxCell>
        <mxCell id="M6uvEseLIlFZfIpXj4Gl-291" style="edgeStyle=orthogonalEdgeStyle;fontSize=12;html=1;endArrow=ERmandOne;endFill=1;rounded=0;entryX=0.25;entryY=1;entryDx=0;entryDy=0;exitX=0.5;exitY=0;exitDx=0;exitDy=0;" edge="1" parent="1" source="M6uvEseLIlFZfIpXj4Gl-289" target="M6uvEseLIlFZfIpXj4Gl-124">
          <mxGeometry relative="1" as="geometry">
            <Array as="points">
              <mxPoint x="30" y="660" />
              <mxPoint x="237" y="660" />
            </Array>
          </mxGeometry>
        </mxCell>
        <mxCell id="M6uvEseLIlFZfIpXj4Gl-289" value="has" style="shape=rhombus;perimeter=rhombusPerimeter;whiteSpace=wrap;html=1;align=center;" vertex="1" parent="1">
          <mxGeometry x="-30" y="255" width="120" height="60" as="geometry" />
        </mxCell>
        <mxCell id="M6uvEseLIlFZfIpXj4Gl-290" style="edgeStyle=orthogonalEdgeStyle;fontSize=12;html=1;endArrow=ERzeroToMany;endFill=1;rounded=0;exitX=0.5;exitY=0;exitDx=0;exitDy=0;" edge="1" parent="1" source="M6uvEseLIlFZfIpXj4Gl-289">
          <mxGeometry relative="1" as="geometry">
            <mxPoint x="-165" y="110" as="targetPoint" />
            <Array as="points">
              <mxPoint x="30" y="200" />
              <mxPoint x="-165" y="200" />
            </Array>
          </mxGeometry>
        </mxCell>
        <mxCell id="M6uvEseLIlFZfIpXj4Gl-294" value="quantity" style="ellipse;whiteSpace=wrap;html=1;align=center;" vertex="1" parent="1">
          <mxGeometry x="100" y="380" width="100" height="40" as="geometry" />
        </mxCell>
        <mxCell id="M6uvEseLIlFZfIpXj4Gl-297" value="&amp;nbsp; id&amp;nbsp;&amp;nbsp;" style="ellipse;whiteSpace=wrap;html=1;align=center;fontStyle=4;" vertex="1" parent="1">
          <mxGeometry x="-680" y="920" width="100" height="40" as="geometry" />
        </mxCell>
        <mxCell id="M6uvEseLIlFZfIpXj4Gl-300" value="cart" style="rounded=1;arcSize=10;whiteSpace=wrap;html=1;align=center;" vertex="1" parent="1">
          <mxGeometry x="-520" y="1010" width="70" height="30" as="geometry" />
        </mxCell>
        <mxCell id="M6uvEseLIlFZfIpXj4Gl-305" style="edgeStyle=orthogonalEdgeStyle;rounded=0;orthogonalLoop=1;jettySize=auto;html=1;entryX=1;entryY=0.5;entryDx=0;entryDy=0;" edge="1" parent="1" source="M6uvEseLIlFZfIpXj4Gl-300" target="M6uvEseLIlFZfIpXj4Gl-309">
          <mxGeometry relative="1" as="geometry">
            <mxPoint x="-585.7" y="996.7599999999998" as="targetPoint" />
          </mxGeometry>
        </mxCell>
        <mxCell id="M6uvEseLIlFZfIpXj4Gl-306" style="edgeStyle=orthogonalEdgeStyle;rounded=0;orthogonalLoop=1;jettySize=auto;html=1;entryX=0.993;entryY=0.551;entryDx=0;entryDy=0;entryPerimeter=0;" edge="1" parent="1" source="M6uvEseLIlFZfIpXj4Gl-300" target="M6uvEseLIlFZfIpXj4Gl-297">
          <mxGeometry relative="1" as="geometry">
            <Array as="points">
              <mxPoint x="-485" y="942" />
            </Array>
          </mxGeometry>
        </mxCell>
        <mxCell id="M6uvEseLIlFZfIpXj4Gl-309" value="&lt;span style=&quot;border-bottom: 1px dotted&quot;&gt;userId&lt;/span&gt;" style="ellipse;whiteSpace=wrap;html=1;align=center;" vertex="1" parent="1">
          <mxGeometry x="-700" y="980" width="100" height="40" as="geometry" />
        </mxCell>
        <mxCell id="M6uvEseLIlFZfIpXj4Gl-322" value="&amp;nbsp; id&amp;nbsp;&amp;nbsp;" style="ellipse;whiteSpace=wrap;html=1;align=center;fontStyle=4;" vertex="1" parent="1">
          <mxGeometry x="-245" y="1110" width="100" height="40" as="geometry" />
        </mxCell>
        <mxCell id="M6uvEseLIlFZfIpXj4Gl-341" style="edgeStyle=orthogonalEdgeStyle;rounded=0;orthogonalLoop=1;jettySize=auto;html=1;entryX=0;entryY=0.5;entryDx=0;entryDy=0;" edge="1" parent="1" source="M6uvEseLIlFZfIpXj4Gl-323" target="M6uvEseLIlFZfIpXj4Gl-339">
          <mxGeometry relative="1" as="geometry">
            <Array as="points">
              <mxPoint x="-40" y="1240" />
              <mxPoint x="5" y="1240" />
              <mxPoint x="5" y="1250" />
            </Array>
          </mxGeometry>
        </mxCell>
        <mxCell id="M6uvEseLIlFZfIpXj4Gl-323" value="product_cart" style="rounded=1;arcSize=10;whiteSpace=wrap;html=1;align=center;" vertex="1" parent="1">
          <mxGeometry x="-85" y="1200" width="70" height="30" as="geometry" />
        </mxCell>
        <mxCell id="M6uvEseLIlFZfIpXj4Gl-324" style="edgeStyle=orthogonalEdgeStyle;rounded=0;orthogonalLoop=1;jettySize=auto;html=1;entryX=1;entryY=0.5;entryDx=0;entryDy=0;" edge="1" parent="1" source="M6uvEseLIlFZfIpXj4Gl-323" target="M6uvEseLIlFZfIpXj4Gl-326">
          <mxGeometry relative="1" as="geometry">
            <mxPoint x="-150.70000000000005" y="1186.7599999999998" as="targetPoint" />
          </mxGeometry>
        </mxCell>
        <mxCell id="M6uvEseLIlFZfIpXj4Gl-325" style="edgeStyle=orthogonalEdgeStyle;rounded=0;orthogonalLoop=1;jettySize=auto;html=1;entryX=0.993;entryY=0.551;entryDx=0;entryDy=0;entryPerimeter=0;" edge="1" parent="1" source="M6uvEseLIlFZfIpXj4Gl-323" target="M6uvEseLIlFZfIpXj4Gl-322">
          <mxGeometry relative="1" as="geometry">
            <Array as="points">
              <mxPoint x="-50" y="1132" />
            </Array>
          </mxGeometry>
        </mxCell>
        <mxCell id="M6uvEseLIlFZfIpXj4Gl-326" value="&lt;span style=&quot;border-bottom: 1px dotted&quot;&gt;cartId&lt;/span&gt;" style="ellipse;whiteSpace=wrap;html=1;align=center;" vertex="1" parent="1">
          <mxGeometry x="-265" y="1170" width="100" height="40" as="geometry" />
        </mxCell>
        <mxCell id="M6uvEseLIlFZfIpXj4Gl-331" style="edgeStyle=orthogonalEdgeStyle;fontSize=12;html=1;endArrow=ERzeroToOne;rounded=0;exitX=0.5;exitY=1;exitDx=0;exitDy=0;" edge="1" parent="1" source="M6uvEseLIlFZfIpXj4Gl-329" target="M6uvEseLIlFZfIpXj4Gl-300">
          <mxGeometry relative="1" as="geometry">
            <Array as="points">
              <mxPoint x="-350" y="925" />
              <mxPoint x="-460" y="925" />
            </Array>
          </mxGeometry>
        </mxCell>
        <mxCell id="M6uvEseLIlFZfIpXj4Gl-329" value="has" style="shape=rhombus;perimeter=rhombusPerimeter;whiteSpace=wrap;html=1;align=center;" vertex="1" parent="1">
          <mxGeometry x="-410" y="780" width="120" height="60" as="geometry" />
        </mxCell>
        <mxCell id="M6uvEseLIlFZfIpXj4Gl-330" style="edgeStyle=orthogonalEdgeStyle;fontSize=12;html=1;endArrow=ERmandOne;rounded=0;exitX=1;exitY=0.5;exitDx=0;exitDy=0;" edge="1" parent="1" source="M6uvEseLIlFZfIpXj4Gl-329" target="M6uvEseLIlFZfIpXj4Gl-5">
          <mxGeometry relative="1" as="geometry">
            <Array as="points">
              <mxPoint x="-240" y="810" />
            </Array>
          </mxGeometry>
        </mxCell>
        <mxCell id="M6uvEseLIlFZfIpXj4Gl-335" style="edgeStyle=orthogonalEdgeStyle;fontSize=12;html=1;endArrow=ERoneToMany;endFill=1;rounded=0;exitX=1;exitY=0.5;exitDx=0;exitDy=0;" edge="1" parent="1" source="M6uvEseLIlFZfIpXj4Gl-323">
          <mxGeometry relative="1" as="geometry">
            <mxPoint x="-10" y="1215" as="sourcePoint" />
            <mxPoint x="285" y="640" as="targetPoint" />
          </mxGeometry>
        </mxCell>
        <mxCell id="M6uvEseLIlFZfIpXj4Gl-336" value="&lt;span style=&quot;border-bottom: 1px dotted&quot;&gt;productId&lt;/span&gt;" style="ellipse;whiteSpace=wrap;html=1;align=center;" vertex="1" parent="1">
          <mxGeometry x="-15" y="1120" width="100" height="40" as="geometry" />
        </mxCell>
        <mxCell id="M6uvEseLIlFZfIpXj4Gl-337" value="quantity" style="ellipse;whiteSpace=wrap;html=1;align=center;" vertex="1" parent="1">
          <mxGeometry x="-50" y="1290" width="100" height="40" as="geometry" />
        </mxCell>
        <mxCell id="M6uvEseLIlFZfIpXj4Gl-338" value="date_added" style="ellipse;whiteSpace=wrap;html=1;align=center;" vertex="1" parent="1">
          <mxGeometry x="-165" y="1290" width="100" height="40" as="geometry" />
        </mxCell>
        <mxCell id="M6uvEseLIlFZfIpXj4Gl-339" value="status" style="ellipse;whiteSpace=wrap;html=1;align=center;" vertex="1" parent="1">
          <mxGeometry x="20" y="1230" width="100" height="40" as="geometry" />
        </mxCell>
        <mxCell id="M6uvEseLIlFZfIpXj4Gl-340" style="edgeStyle=orthogonalEdgeStyle;rounded=0;orthogonalLoop=1;jettySize=auto;html=1;entryX=0.38;entryY=1.083;entryDx=0;entryDy=0;entryPerimeter=0;" edge="1" parent="1" source="M6uvEseLIlFZfIpXj4Gl-323" target="M6uvEseLIlFZfIpXj4Gl-336">
          <mxGeometry relative="1" as="geometry">
            <Array as="points">
              <mxPoint x="-30" y="1180" />
              <mxPoint x="23" y="1180" />
            </Array>
          </mxGeometry>
        </mxCell>
        <mxCell id="M6uvEseLIlFZfIpXj4Gl-342" style="edgeStyle=orthogonalEdgeStyle;rounded=0;orthogonalLoop=1;jettySize=auto;html=1;exitX=0.75;exitY=1;exitDx=0;exitDy=0;entryX=0.291;entryY=0.095;entryDx=0;entryDy=0;entryPerimeter=0;" edge="1" parent="1" source="M6uvEseLIlFZfIpXj4Gl-323" target="M6uvEseLIlFZfIpXj4Gl-337">
          <mxGeometry relative="1" as="geometry" />
        </mxCell>
        <mxCell id="M6uvEseLIlFZfIpXj4Gl-343" style="edgeStyle=orthogonalEdgeStyle;rounded=0;orthogonalLoop=1;jettySize=auto;html=1;exitX=0.5;exitY=1;exitDx=0;exitDy=0;entryX=0.937;entryY=0.286;entryDx=0;entryDy=0;entryPerimeter=0;" edge="1" parent="1" source="M6uvEseLIlFZfIpXj4Gl-323" target="M6uvEseLIlFZfIpXj4Gl-338">
          <mxGeometry relative="1" as="geometry" />
        </mxCell>
        <mxCell id="M6uvEseLIlFZfIpXj4Gl-344" style="edgeStyle=orthogonalEdgeStyle;fontSize=12;html=1;endArrow=ERzeroToMany;endFill=1;rounded=0;" edge="1" parent="1" source="M6uvEseLIlFZfIpXj4Gl-323" target="M6uvEseLIlFZfIpXj4Gl-300">
          <mxGeometry relative="1" as="geometry">
            <Array as="points">
              <mxPoint x="-493" y="1230" />
            </Array>
          </mxGeometry>
        </mxCell>
      </root>
    </mxGraphModel>
  </diagram>
</mxfile>
